<svg width="138" height="56" viewBox="0 0 138 56" fill="none" xmlns="http://www.w3.org/2000/svg">
<path d="M22.2803 47.9248C22.2803 51.8501 19.0981 55.0321 15.1729 55.0322V43.8174H22.2803V47.9248ZM22.2803 40.418H14.791C10.8657 40.418 7.68359 37.2359 7.68359 33.3105H22.2803V40.418ZM15.375 0C18.1736 0 20.745 0.647092 23.0889 1.94141C25.4327 3.23578 27.287 5.02006 28.6514 7.29395C30.0157 9.56778 30.6982 12.1215 30.6982 14.9551C30.6982 17.7887 30.0157 20.3433 28.6514 22.6172C27.287 24.8909 25.4326 26.6744 23.0889 27.9688C20.745 29.2631 18.1737 29.9111 15.375 29.9111C12.5764 29.9111 9.98721 29.2631 7.6084 27.9688C5.26494 26.6745 3.41109 24.8907 2.04688 22.6172C0.682524 20.3433 0 17.7887 0 14.9551C4.97423e-05 12.1215 0.682574 9.56778 2.04688 7.29395C3.41116 5.02022 5.26473 3.23574 7.6084 1.94141C9.98721 0.647051 12.5764 2.94046e-05 15.375 0ZM15.375 7.08398C13.9757 7.08402 12.7161 7.43415 11.5967 8.13379C10.5123 8.79846 9.65504 9.72571 9.02539 10.915C8.43082 12.1043 8.13383 13.451 8.13379 14.9551C8.13379 16.4943 8.43067 17.8594 9.02539 19.0488C9.65508 20.2382 10.5123 21.1654 11.5967 21.8301C12.7161 22.4947 13.9757 22.8261 15.375 22.8262C16.7741 22.8262 18.0162 22.4946 19.1006 21.8301C20.185 21.1654 21.0254 20.2382 21.6201 19.0488C22.2498 17.8594 22.5645 16.4943 22.5645 14.9551C22.5644 13.4511 22.2497 12.1043 21.6201 10.915C21.0254 9.72561 20.1851 8.79847 19.1006 8.13379C18.0161 7.43419 16.7743 7.08398 15.375 7.08398Z" fill="#5E00FF"/>
<path d="M50.9443 40.3906C49.6719 40.3906 48.4999 40.1562 47.4285 39.6874C46.3793 39.2187 45.5422 38.549 44.9172 37.6784L45.386 36.6404V39.9888H40.6982V14.6416H45.7208V25.189L44.9507 24.1845C45.5534 23.2692 46.3682 22.5661 47.395 22.075C48.4441 21.5616 49.6384 21.3049 50.9777 21.3049C52.6966 21.3049 54.2592 21.729 55.6655 22.5772C57.0941 23.4255 58.2214 24.5751 59.0473 26.0261C59.8733 27.477 60.2862 29.0842 60.2862 30.8477C60.2862 32.6112 59.8733 34.2184 59.0473 35.6694C58.2437 37.1203 57.1276 38.27 55.699 39.1182C54.2926 39.9665 52.7077 40.3906 50.9443 40.3906ZM50.3416 35.8703C51.2568 35.8703 52.0715 35.6582 52.7859 35.2341C53.5225 34.81 54.0917 34.2184 54.4935 33.4595C54.8953 32.6782 55.0962 31.8076 55.0962 30.8477C55.0962 29.8879 54.8953 29.0284 54.4935 28.2695C54.0917 27.5105 53.5225 26.919 52.7859 26.4948C52.0715 26.0484 51.2568 25.8252 50.3416 25.8252C49.4487 25.8252 48.645 26.0372 47.9307 26.4614C47.2387 26.8855 46.6918 27.4882 46.29 28.2695C45.9105 29.0284 45.7208 29.8879 45.7208 30.8477C45.7208 31.8299 45.9105 32.7005 46.29 33.4595C46.6918 34.2184 47.2387 34.81 47.9307 35.2341C48.645 35.6582 49.4487 35.8703 50.3416 35.8703Z" fill="#0B0F14"/>
<path d="M70.9626 40.3906C69.1768 40.3906 67.5249 39.9776 66.007 39.1517C64.5114 38.3258 63.3283 37.1873 62.4577 35.7364C61.5871 34.2854 61.1518 32.6558 61.1518 30.8477C61.1518 29.0396 61.5871 27.4101 62.4577 25.9591C63.3283 24.5081 64.5114 23.3697 66.007 22.5438C67.5249 21.7178 69.1768 21.3049 70.9626 21.3049C72.7484 21.3049 74.3891 21.7178 75.8847 22.5438C77.3803 23.3697 78.5634 24.5081 79.4339 25.9591C80.3045 27.4101 80.7398 29.0396 80.7398 30.8477C80.7398 32.6558 80.3045 34.2854 79.4339 35.7364C78.5634 37.1873 77.3803 38.3258 75.8847 39.1517C74.3891 39.9776 72.7484 40.3906 70.9626 40.3906ZM70.9626 35.8703C71.8555 35.8703 72.6479 35.6582 73.3399 35.2341C74.0319 34.81 74.5676 34.2184 74.9471 33.4595C75.3489 32.7005 75.5498 31.8299 75.5498 30.8477C75.5498 29.8879 75.3489 29.0284 74.9471 28.2695C74.5676 27.5105 74.0319 26.919 73.3399 26.4948C72.6479 26.0484 71.8555 25.8252 70.9626 25.8252C70.0697 25.8252 69.2661 26.0484 68.5517 26.4948C67.8597 26.919 67.3128 27.5105 66.911 28.2695C66.5315 29.0284 66.3418 29.8879 66.3418 30.8477C66.3418 31.8299 66.5315 32.7005 66.911 33.4595C67.3128 34.2184 67.8597 34.81 68.5517 35.2341C69.2661 35.6582 70.0697 35.8703 70.9626 35.8703Z" fill="#0B0F14"/>
<path d="M91.4334 40.3906C89.6476 40.3906 87.9957 39.9776 86.4778 39.1517C84.9822 38.3258 83.7991 37.1873 82.9285 35.7364C82.058 34.2854 81.6227 32.6558 81.6227 30.8477C81.6227 29.0396 82.058 27.4101 82.9285 25.9591C83.7991 24.5081 84.9822 23.3697 86.4778 22.5438C87.9957 21.7178 89.6476 21.3049 91.4334 21.3049C93.2192 21.3049 94.8599 21.7178 96.3555 22.5438C97.8511 23.3697 99.0342 24.5081 99.9048 25.9591C100.775 27.4101 101.211 29.0396 101.211 30.8477C101.211 32.6558 100.775 34.2854 99.9048 35.7364C99.0342 37.1873 97.8511 38.3258 96.3555 39.1517C94.8599 39.9776 93.2192 40.3906 91.4334 40.3906ZM91.4334 35.8703C92.3263 35.8703 93.1188 35.6582 93.8107 35.2341C94.5027 34.81 95.0385 34.2184 95.418 33.4595C95.8198 32.7005 96.0207 31.8299 96.0207 30.8477C96.0207 29.8879 95.8198 29.0284 95.418 28.2695C95.0385 27.5105 94.5027 26.919 93.8107 26.4948C93.1188 26.0484 92.3263 25.8252 91.4334 25.8252C90.5405 25.8252 89.7369 26.0484 89.0226 26.4948C88.3306 26.919 87.7837 27.5105 87.3819 28.2695C87.0024 29.0284 86.8127 29.8879 86.8127 30.8477C86.8127 31.8299 87.0024 32.7005 87.3819 33.4595C87.7837 34.2184 88.3306 34.81 89.0226 35.2341C89.7369 35.6582 90.5405 35.8703 91.4334 35.8703Z" fill="#0B0F14"/>
<path d="M102.83 14.6416H107.853V39.9888H102.83V14.6416Z" fill="#0B0F14"/>
<path d="M118.995 40.1897C116.785 40.1897 115.066 39.5981 113.838 38.415C112.633 37.2096 112.03 35.5354 112.03 33.3925V26.0596H108.95V21.7067H109.117C110.055 21.7067 110.769 21.4723 111.26 21.0035C111.774 20.5347 112.03 19.8316 112.03 18.894V16.885H117.053V21.7067H121.339V26.0596H117.053V33.0577C117.053 33.9952 117.31 34.6984 117.823 35.1671C118.336 35.6136 119.118 35.8368 120.167 35.8368C120.479 35.8368 120.87 35.8033 121.339 35.7364V40.0223C120.602 40.1339 119.821 40.1897 118.995 40.1897Z" fill="#0B0F14"/>
<path d="M130.443 40.3571C128.434 40.4241 126.67 40.0111 125.153 39.1182C123.635 38.2253 122.585 36.9864 122.005 35.4015L125.621 33.5264C126.135 34.5086 126.793 35.2564 127.597 35.7698C128.423 36.2833 129.327 36.5288 130.309 36.5065C131.001 36.4842 131.537 36.3279 131.916 36.0377C132.296 35.7252 132.474 35.3122 132.452 34.7988C132.43 34.397 132.262 34.0622 131.95 33.7943C131.637 33.5264 131.18 33.3367 130.577 33.2251L127.463 32.6224C125.967 32.2652 124.795 31.6067 123.947 30.6468C123.099 29.687 122.652 28.5485 122.608 27.2315C122.585 26.1154 122.842 25.122 123.378 24.2514C123.936 23.3585 124.728 22.6554 125.755 22.142C126.782 21.6285 127.976 21.3495 129.338 21.3049C131.124 21.2379 132.698 21.6062 134.059 22.4098C135.443 23.1911 136.448 24.3296 137.073 25.8252L133.423 27.7003C133.111 26.9636 132.597 26.3832 131.883 25.9591C131.168 25.5127 130.365 25.3006 129.472 25.3229C128.825 25.3452 128.322 25.5015 127.965 25.7917C127.608 26.0596 127.441 26.4279 127.463 26.8966C127.485 27.2761 127.653 27.5998 127.965 27.8677C128.3 28.1132 128.813 28.3253 129.505 28.5039L132.419 29.1066C133.959 29.5084 135.142 30.1669 135.968 31.0821C136.816 31.9973 137.263 33.1135 137.307 34.4305C137.329 35.5689 137.062 36.5734 136.504 37.444C135.968 38.3146 135.175 39.0066 134.126 39.52C133.077 40.0334 131.849 40.3125 130.443 40.3571Z" fill="#0B0F14"/>
</svg>
