<svg width="207" height="62" viewBox="0 0 207 62" fill="none" xmlns="http://www.w3.org/2000/svg">
    <path d="M24.8311 53.4102C24.8311 57.7849 21.2839 61.332 16.9092 61.332V48.832H24.8311V53.4102ZM24.8291 45.0439H16.4824C12.1079 45.0437 8.56152 41.4976 8.56152 37.123H24.8291V45.0439ZM17.1357 0C20.2547 4.27563e-05 23.1203 0.721549 25.7324 2.16406C28.3446 3.60662 30.4111 5.59566 31.9316 8.12988C33.452 10.664 34.2119 13.5101 34.2119 16.668C34.2119 19.8259 33.4521 22.6719 31.9316 25.2061C30.4112 27.7402 28.3445 29.7284 25.7324 31.1709C23.1203 32.6134 20.2547 33.3349 17.1357 33.335C14.0167 33.335 11.1316 32.6134 8.48047 31.1709C5.86827 29.7283 3.80178 27.7403 2.28125 25.2061C0.760743 22.6719 2.68617e-05 19.8259 0 16.668C0 13.51 0.760811 10.664 2.28125 8.12988C3.80178 5.59566 5.86827 3.60662 8.48047 2.16406C11.1316 0.721635 14.0168 0 17.1357 0ZM17.1357 7.89551C15.5762 7.89551 14.1724 8.28567 12.9248 9.06543C11.7162 9.8062 10.7613 10.8395 10.0596 12.165C9.39681 13.4906 9.06445 14.9915 9.06445 16.668C9.06448 18.3834 9.3968 19.9039 10.0596 21.2295C10.7613 22.555 11.7163 23.5884 12.9248 24.3291C14.1724 25.0698 15.5763 25.4404 17.1357 25.4404C18.6952 25.4404 20.0795 25.0698 21.2881 24.3291C22.4966 23.5884 23.432 22.555 24.0947 21.2295C24.7965 19.9039 25.1474 18.3834 25.1475 16.668C25.1475 14.9916 24.7964 13.4906 24.0947 12.165C23.432 10.8396 22.4965 9.80618 21.2881 9.06543C20.0795 8.28572 18.6952 7.89555 17.1357 7.89551Z" fill="white"/>
    <path d="M66.2301 51.266C64.2301 51.266 62.3967 50.866 60.7301 50.066C59.0967 49.266 57.8134 48.1493 56.8801 46.716L57.5301 45.416V50.666H51.3801V12.816H57.9301V28.866L56.9301 27.516C57.8634 26.0493 59.1301 24.916 60.7301 24.116C62.3634 23.2827 64.2134 22.866 66.2801 22.866C68.8134 22.866 71.1301 23.4993 73.2301 24.766C75.3301 26.0327 76.9801 27.7493 78.1801 29.916C79.3801 32.0493 79.9801 34.4327 79.9801 37.066C79.9801 39.6993 79.3801 42.0993 78.1801 44.266C76.9801 46.4327 75.3301 48.1493 73.2301 49.416C71.1634 50.6493 68.8301 51.266 66.2301 51.266ZM65.4801 45.266C66.9467 45.266 68.2634 44.916 69.4301 44.216C70.6301 43.516 71.5467 42.5493 72.1801 41.316C72.8467 40.0493 73.1801 38.6327 73.1801 37.066C73.1801 35.4993 72.8467 34.0993 72.1801 32.866C71.5467 31.6327 70.6301 30.666 69.4301 29.966C68.2634 29.2327 66.9467 28.866 65.4801 28.866C64.0467 28.866 62.7467 29.216 61.5801 29.916C60.4467 30.616 59.5467 31.5993 58.8801 32.866C58.2467 34.1327 57.9301 35.5327 57.9301 37.066C57.9301 38.6327 58.2467 40.0493 58.8801 41.316C59.5467 42.5493 60.4467 43.516 61.5801 44.216C62.7467 44.916 64.0467 45.266 65.4801 45.266ZM98.2238 51.266C95.6238 51.266 93.2072 50.6493 90.9738 49.416C88.7738 48.1827 87.0405 46.4827 85.7738 44.316C84.5072 42.1493 83.8738 39.7327 83.8738 37.066C83.8738 34.366 84.5072 31.9493 85.7738 29.816C87.0405 27.6493 88.7738 25.9493 90.9738 24.716C93.1738 23.4827 95.5905 22.866 98.2238 22.866C100.89 22.866 103.307 23.4827 105.474 24.716C107.674 25.9493 109.407 27.6493 110.674 29.816C111.974 31.9827 112.624 34.3993 112.624 37.066C112.624 39.766 111.974 42.1993 110.674 44.366C109.407 46.4993 107.674 48.1827 105.474 49.416C103.274 50.6493 100.857 51.266 98.2238 51.266ZM98.2738 45.266C99.7072 45.266 100.99 44.916 102.124 44.216C103.257 43.516 104.14 42.5493 104.774 41.316C105.44 40.0493 105.774 38.6327 105.774 37.066C105.774 35.4993 105.44 34.0993 104.774 32.866C104.14 31.6327 103.257 30.666 102.124 29.966C100.99 29.2327 99.6905 28.866 98.2238 28.866C96.7905 28.866 95.4905 29.2327 94.3238 29.966C93.1905 30.666 92.2905 31.6327 91.6238 32.866C90.9905 34.0993 90.6738 35.4993 90.6738 37.066C90.6738 38.6327 90.9905 40.0493 91.6238 41.316C92.2905 42.5493 93.1905 43.516 94.3238 44.216C95.4905 44.916 96.8072 45.266 98.2738 45.266ZM130.841 51.266C128.241 51.266 125.824 50.6493 123.591 49.416C121.391 48.1827 119.658 46.4827 118.391 44.316C117.124 42.1493 116.491 39.7327 116.491 37.066C116.491 34.366 117.124 31.9493 118.391 29.816C119.658 27.6493 121.391 25.9493 123.591 24.716C125.791 23.4827 128.208 22.866 130.841 22.866C133.508 22.866 135.924 23.4827 138.091 24.716C140.291 25.9493 142.024 27.6493 143.291 29.816C144.591 31.9827 145.241 34.3993 145.241 37.066C145.241 39.766 144.591 42.1993 143.291 44.366C142.024 46.4993 140.291 48.1827 138.091 49.416C135.891 50.6493 133.474 51.266 130.841 51.266ZM130.891 45.266C132.324 45.266 133.608 44.916 134.741 44.216C135.874 43.516 136.758 42.5493 137.391 41.316C138.058 40.0493 138.391 38.6327 138.391 37.066C138.391 35.4993 138.058 34.0993 137.391 32.866C136.758 31.6327 135.874 30.666 134.741 29.966C133.608 29.2327 132.308 28.866 130.841 28.866C129.408 28.866 128.108 29.2327 126.941 29.966C125.808 30.666 124.908 31.6327 124.241 32.866C123.608 34.0993 123.291 35.4993 123.291 37.066C123.291 38.6327 123.608 40.0493 124.241 41.316C124.908 42.5493 125.808 43.516 126.941 44.216C128.108 44.916 129.424 45.266 130.891 45.266ZM150.208 12.816H156.758V50.666H150.208V12.816ZM175.206 50.966C172.139 50.966 169.756 50.1327 168.056 48.466C166.389 46.766 165.556 44.3827 165.556 41.316V29.316H160.856V23.466H161.356C162.689 23.466 163.723 23.116 164.456 22.416C165.189 21.716 165.556 20.6993 165.556 19.366V16.416H172.106V23.466H178.356V29.316H172.106V40.966C172.106 42.366 172.473 43.4327 173.206 44.166C173.939 44.866 175.106 45.216 176.706 45.216C177.239 45.216 177.823 45.166 178.456 45.066V50.716C177.489 50.8827 176.406 50.966 175.206 50.966ZM194.21 51.216C191.343 51.316 188.81 50.716 186.61 49.416C184.41 48.0827 182.877 46.2493 182.01 43.916L186.86 41.416C187.627 42.916 188.643 44.0827 189.91 44.916C191.177 45.716 192.56 46.0993 194.06 46.066C195.26 46.0327 196.193 45.7493 196.86 45.216C197.56 44.6827 197.893 43.966 197.86 43.066C197.827 42.2993 197.51 41.6827 196.91 41.216C196.31 40.716 195.543 40.3827 194.61 40.216L190.16 39.466C187.893 38.8993 186.143 37.916 184.91 36.516C183.677 35.0827 183.027 33.416 182.96 31.516C182.927 29.8827 183.31 28.4327 184.11 27.166C184.91 25.866 186.06 24.8493 187.56 24.116C189.06 23.3493 190.777 22.9327 192.71 22.866C195.277 22.7993 197.56 23.366 199.56 24.566C201.56 25.7327 203.01 27.3993 203.91 29.566L199.06 32.066C198.527 30.866 197.693 29.916 196.56 29.216C195.46 28.516 194.21 28.1827 192.81 28.216C191.743 28.2493 190.893 28.5327 190.26 29.066C189.627 29.566 189.327 30.216 189.36 31.016C189.393 31.7493 189.693 32.3493 190.26 32.816C190.86 33.2827 191.66 33.6327 192.66 33.866L197.01 34.666C199.277 35.266 201.027 36.266 202.26 37.666C203.527 39.0327 204.193 40.6827 204.26 42.616C204.293 44.2493 203.91 45.716 203.11 47.016C202.31 48.2827 201.127 49.2827 199.56 50.016C198.027 50.7493 196.243 51.1493 194.21 51.216Z" fill="white"/>
</svg>
