<svg width="30" height="30" viewBox="0 0 30 30" fill="none" xmlns="http://www.w3.org/2000/svg">
<circle cx="15" cy="15" r="15" fill="#CEB2FF"/>
<path d="M11 9H14.888C16.136 9 17.2293 9.25067 18.168 9.752C19.1067 10.2533 19.832 10.9573 20.344 11.864C20.856 12.76 21.112 13.7893 21.112 14.952C21.112 16.1147 20.856 17.1493 20.344 18.056C19.832 18.952 19.1013 19.656 18.152 20.168C17.2133 20.6693 16.1253 20.92 14.888 20.92H11V9ZM14.936 19C15.736 19 16.4347 18.8347 17.032 18.504C17.64 18.1733 18.104 17.704 18.424 17.096C18.7547 16.488 18.92 15.7733 18.92 14.952C18.92 14.1307 18.7547 13.4213 18.424 12.824C18.104 12.216 17.64 11.7467 17.032 11.416C16.4347 11.0853 15.736 10.92 14.936 10.92H13.176V19H14.936Z" fill="#5D00FF"/>
</svg>
