<svg preserveAspectRatio="none" overflow="visible" style="display: block;" width="79.746" height="17.413" viewBox="0 0 79.746 17.413" fill="none" xmlns="http://www.w3.org/2000/svg">
<g id="Group">
<path id="Vector" d="M11.235 13.503H8.964L7.72 9.594H3.396L2.211 13.503H0L4.284 0.195H6.93L11.235 13.503ZM7.345 7.954L6.22 4.479C6.101 4.124 5.878 3.288 5.549 1.972H5.509C5.378 2.538 5.167 3.374 4.877 4.479L3.772 7.954H7.345Z" fill="#858789"/>
<path id="Vector_2" d="M22.2517 8.58696C22.2517 10.219 21.8107 11.509 20.9287 12.456C20.1387 13.299 19.1577 13.72 17.9867 13.72C16.7227 13.72 15.8147 13.266 15.2617 12.358H15.2217V17.413H13.0897V7.06596C13.0897 6.03996 13.0627 4.98696 13.0107 3.90696H14.8857L15.0047 5.42796H15.0447C15.7557 4.28196 16.8347 3.70996 18.2827 3.70996C19.4147 3.70996 20.3597 4.15696 21.1157 5.05196C21.8737 5.94796 22.2517 7.12596 22.2517 8.58696ZM20.0797 8.66496C20.0797 7.73096 19.8697 6.96096 19.4477 6.35496C18.9867 5.72296 18.3677 5.40696 17.5917 5.40696C17.0657 5.40696 16.5877 5.58296 16.1607 5.92996C15.7327 6.27996 15.4527 6.73696 15.3217 7.30296C15.2557 7.56696 15.2227 7.78296 15.2227 7.95296V9.55296C15.2227 10.251 15.4367 10.84 15.8647 11.321C16.2927 11.802 16.8487 12.042 17.5327 12.042C18.3357 12.042 18.9607 11.732 19.4077 11.114C19.8557 10.495 20.0797 9.67896 20.0797 8.66496Z" fill="#858789"/>
<path id="Vector_3" d="M33.289 8.587C33.289 10.219 32.848 11.509 31.965 12.456C31.176 13.299 30.195 13.72 29.024 13.72C27.76 13.72 26.852 13.266 26.3 12.358H26.26V17.413H24.128V7.066C24.128 6.04 24.101 4.987 24.049 3.907H25.924L26.043 5.428H26.083C26.793 4.282 27.872 3.71 29.321 3.71C30.452 3.71 31.397 4.157 32.155 5.052C32.91 5.948 33.289 7.126 33.289 8.587ZM31.117 8.665C31.117 7.731 30.906 6.961 30.484 6.355C30.023 5.723 29.406 5.407 28.629 5.407C28.102 5.407 27.625 5.583 27.197 5.93C26.769 6.28 26.49 6.737 26.359 7.303C26.294 7.567 26.26 7.783 26.26 7.953V9.553C26.26 10.251 26.474 10.84 26.9 11.321C27.328 11.801 27.884 12.042 28.57 12.042C29.373 12.042 29.998 11.732 30.445 11.114C30.893 10.495 31.117 9.679 31.117 8.665Z" fill="#858789"/>
<path id="Vector_4" d="M45.629 9.771C45.629 10.903 45.236 11.824 44.447 12.535C43.58 13.312 42.373 13.7 40.822 13.7C39.39 13.7 38.242 13.424 37.373 12.871L37.867 11.094C38.803 11.66 39.83 11.944 40.949 11.944C41.752 11.944 42.377 11.762 42.826 11.4C43.273 11.038 43.496 10.552 43.496 9.946C43.496 9.406 43.312 8.951 42.943 8.582C42.576 8.213 41.963 7.87 41.107 7.553C38.777 6.684 37.613 5.411 37.613 3.737C37.613 2.643 38.021 1.746 38.838 1.048C39.652 0.349 40.738 0 42.096 0C43.307 0 44.313 0.211 45.116 0.632L44.583 2.37C43.833 1.962 42.985 1.758 42.036 1.758C41.286 1.758 40.7 1.943 40.28 2.311C39.925 2.64 39.747 3.041 39.747 3.516C39.747 4.042 39.95 4.477 40.358 4.819C40.713 5.135 41.358 5.477 42.294 5.846C43.439 6.307 44.28 6.846 44.821 7.464C45.36 8.08 45.629 8.851 45.629 9.771Z" fill="#858789"/>
<path id="Vector_5" d="M52.678 5.507H50.328V10.166C50.328 11.351 50.742 11.943 51.572 11.943C51.953 11.943 52.269 11.91 52.519 11.844L52.578 13.463C52.158 13.62 51.605 13.699 50.92 13.699C50.078 13.699 49.42 13.442 48.945 12.929C48.472 12.415 48.234 11.553 48.234 10.342V5.505H46.834V3.905H48.234V2.148L50.328 1.516V3.905H52.678V5.507Z" fill="#858789"/>
<path id="Vector_6" d="M63.281 8.626C63.281 10.101 62.859 11.312 62.017 12.259C61.134 13.234 59.962 13.72 58.501 13.72C57.093 13.72 55.972 13.253 55.136 12.319C54.3 11.385 53.882 10.206 53.882 8.785C53.882 7.298 54.312 6.08 55.175 5.133C56.036 4.185 57.198 3.711 58.659 3.711C60.067 3.711 61.2 4.178 62.055 5.113C62.873 6.02 63.281 7.191 63.281 8.626ZM61.069 8.695C61.069 7.81 60.88 7.051 60.497 6.418C60.05 5.652 59.411 5.27 58.583 5.27C57.726 5.27 57.075 5.653 56.628 6.418C56.245 7.052 56.056 7.823 56.056 8.735C56.056 9.62 56.245 10.379 56.628 11.011C57.089 11.777 57.733 12.159 58.564 12.159C59.378 12.159 60.017 11.769 60.478 10.991C60.871 10.346 61.069 9.579 61.069 8.695Z" fill="#858789"/>
<path id="Vector_7" d="M70.211 5.782C70 5.743 69.775 5.723 69.539 5.723C68.789 5.723 68.209 6.006 67.801 6.573C67.446 7.073 67.268 7.705 67.268 8.468V13.503H65.137L65.157 6.929C65.157 5.823 65.13 4.816 65.077 3.908H66.934L67.012 5.744H67.071C67.296 5.113 67.651 4.605 68.137 4.224C68.612 3.881 69.125 3.71 69.678 3.71C69.875 3.71 70.053 3.724 70.211 3.749V5.782Z" fill="#858789"/>
<path id="Vector_8" d="M79.746 8.251C79.746 8.633 79.721 8.955 79.668 9.218H73.272C73.297 10.166 73.606 10.891 74.2 11.391C74.739 11.838 75.436 12.062 76.292 12.062C77.239 12.062 78.103 11.911 78.88 11.608L79.214 13.088C78.306 13.484 77.234 13.681 75.997 13.681C74.509 13.681 73.341 13.243 72.491 12.368C71.643 11.493 71.218 10.318 71.218 8.844C71.218 7.397 71.613 6.192 72.404 5.231C73.232 4.205 74.351 3.692 75.759 3.692C77.142 3.692 78.189 4.205 78.9 5.231C79.463 6.046 79.746 7.054 79.746 8.251ZM77.713 7.698C77.727 7.066 77.588 6.52 77.299 6.059C76.93 5.466 76.363 5.17 75.6 5.17C74.903 5.17 74.336 5.459 73.903 6.039C73.548 6.5 73.337 7.053 73.272 7.697L77.713 7.698Z" fill="#858789"/>
</g>
</svg>
